<svg width="18" height="18" viewBox="0 0 18 18" fill="none" xmlns="http://www.w3.org/2000/svg">
<path d="M11.5 2.33332V0.666656M11.5 2.33332V3.99999M11.5 2.33332H7.75M1.5 7.33332V3.99999C1.5 3.55796 1.67559 3.13404 1.98816 2.82148C2.30072 2.50892 2.72464 2.33332 3.16667 2.33332H4.83333M4.83333 0.666656V3.99999M16.5 7.33332V3.99999C16.5 3.55796 16.3244 3.13404 16.0118 2.82148C15.6993 2.50892 15.2754 2.33332 14.8333 2.33332H14.4167M1.5 7.33332V14.8333C1.5 15.2754 1.67559 15.6993 1.98816 16.0118C2.30072 16.3244 2.72464 16.5 3.16667 16.5H14.8333C15.2754 16.5 15.6993 16.3244 16.0118 16.0118C16.3244 15.6993 16.5 15.2754 16.5 14.8333V7.33332H1.5Z" stroke="white" stroke-width="1.20833" stroke-linecap="round" stroke-linejoin="round"/>
</svg>
