<svg
  width="20"
  height="20"
  viewBox="0 0 20 20"
  fill="none"
  xmlns="http://www.w3.org/2000/svg"
>
<path
    d="M12.5 3.33332V1.66666M12.5 3.33332V4.99999M12.5 3.33332H8.75M2.5 8.33332V4.99999C2.5 4.55796 2.67559 4.13404 2.98816 3.82148C3.30072 3.50892 3.72464 3.33332 4.16667 3.33332H5.83333M5.83333 1.66666V4.99999M17.5 8.33332V4.99999C17.5 4.55796 17.3244 4.13404 17.0118 3.82148C16.6993 3.50892 16.2754 3.33332 15.8333 3.33332H15.4167M2.5 8.33332V15.8333C2.5 16.2754 2.67559 16.6993 2.98816 17.0118C3.30072 17.3244 3.72464 17.5 4.16667 17.5H15.8333C16.2754 17.5 16.6993 17.3244 17.0118 17.0118C17.3244 16.6993 17.5 16.2754 17.5 15.8333V8.33332H2.5Z"
    stroke="black"
    stroke-width="1.20833"
    stroke-linecap="round"
    stroke-linejoin="round"
  />
</svg>
