<svg
  width="16"
  height="16"
  viewBox="0 0 16 16"
  fill="none"
  xmlns="http://www.w3.org/2000/svg"
>
<path
    d="M12.2333 9.1C12.5333 7.96667 12.3667 6.8 11.7667 5.76667C11.1667 4.76667 10.2333 4.03333 9.1 3.76667C7.96667 3.46667 6.8 3.63333 5.76667 4.23333C4.76667 4.83333 4.03333 5.76667 3.76667 6.9C3.16667 9.23333 4.56667 11.6333 6.93333 12.2333C7.3 12.3333 7.66667 12.3667 8.03333 12.3667C9.96667 12.3667 11.7333 11.0667 12.2333 9.1ZM2.4 10.5333L1.26667 11.2C0.966667 11.3667 0.866667 11.8 1.03333 12.1C1.16667 12.3 1.36667 12.4333 1.6 12.4333C1.7 12.4333 1.83333 12.4 1.93333 12.3333L3.06667 11.6667C3.2 11.5667 3.3 11.4333 3.36667 11.3C3.2 11.0333 3.03333 10.7667 2.9 10.5C2.73333 10.4333 2.56667 10.4667 2.4 10.5333ZM2.1 7.13333C2.2 7.13333 2.33333 7.1 2.4 7.03333C2.43333 6.86667 2.46667 6.73333 2.5 6.56667C2.53333 6.4 2.6 6.26667 2.63333 6.1C2.53333 5.96667 2.4 5.86667 2.23333 5.83333L0.966667 5.5C0.633334 5.4 0.266667 5.63333 0.166667 5.96667C0.0666675 6.3 0.300001 6.66667 0.633334 6.76667L1.9 7.1C1.96667 7.13333 2.03333 7.13333 2.1 7.13333ZM4.33333 3.06667C4.43333 3.2 4.56667 3.3 4.7 3.36667C4.83333 3.26667 4.96667 3.2 5.1 3.1C5.23333 3.03333 5.36667 2.93333 5.53333 2.86667C5.56667 2.7 5.53333 2.53333 5.46667 2.4L4.8 1.26667C4.63333 0.966667 4.2 0.866667 3.9 1.03333C3.6 1.2 3.5 1.63333 3.66667 1.93333L4.33333 3.06667ZM9.43333 2.5C9.6 2.53333 9.73333 2.6 9.86667 2.63333C10 2.53333 10.1 2.43333 10.1667 2.23333L10.5 0.966668C10.6 0.633334 10.3667 0.266668 10.0333 0.166667C9.7 0.0666675 9.33333 0.300001 9.23333 0.633334L8.9 1.9C8.86667 2.06667 8.9 2.23333 8.96667 2.36667C9.1 2.43333 9.26667 2.46667 9.43333 2.5ZM14.7 4.8C15 4.63333 15.1 4.2 14.9333 3.9C14.7333 3.6 14.3333 3.5 14.0333 3.66667L12.9 4.33333C12.7667 4.43333 12.6667 4.56667 12.6 4.7C12.7 4.83333 12.7667 4.96667 12.8667 5.1C12.9333 5.23333 13.0333 5.36667 13.1 5.53333C13.1333 5.53333 13.2 5.56667 13.2333 5.56667C13.3333 5.56667 13.4667 5.53333 13.5667 5.46667L14.7 4.8ZM15.3333 9.2L14.0667 8.86667C13.9 8.83333 13.7333 8.86667 13.6 8.93333C13.5667 9.1 13.5333 9.23333 13.5 9.4C13.4667 9.56667 13.4 9.7 13.3667 9.86667C13.4667 10 13.6 10.1 13.7667 10.1333L15.0333 10.4667C15.1 10.4667 15.1333 10.5 15.2 10.5C15.5 10.5 15.7667 10.3 15.8333 10C15.9 9.66667 15.7 9.3 15.3333 9.2ZM11.6667 12.9333C11.5667 12.8 11.4333 12.7 11.3 12.6333C11.0333 12.8 10.7667 12.9667 10.4667 13.1C10.4333 13.2667 10.4667 13.4333 10.5333 13.5667L11.2 14.7C11.3333 14.9 11.5333 15.0333 11.7667 15.0333C11.8667 15.0333 12 15 12.1 14.9333C12.4 14.7667 12.5 14.3333 12.3333 14.0333L11.6667 12.9333ZM6.56667 13.5C6.4 13.4667 6.26667 13.4 6.1 13.3667C5.96667 13.4667 5.86667 13.6 5.8 13.7667L5.46667 15.0333C5.36667 15.3667 5.6 15.7333 5.93333 15.8333C6 15.8333 6.03333 15.8667 6.1 15.8667C6.4 15.8667 6.66667 15.6667 6.73333 15.3667L7.06667 14.1C7.1 13.9333 7.06667 13.7667 7 13.6333C6.9 13.5667 6.73333 13.5333 6.56667 13.5Z"
    fill="url(#paint0_linear_12_385)"
  />
<defs>
<linearGradient
      id="paint0_linear_12_385"
      x1="7.99467"
      y1="0.143311"
      x2="7.99467"
      y2="15.8667"
      gradientUnits="userSpaceOnUse"
    >
<stop offset="0.432292" stop-color="#E4A321" />
<stop offset="1" stop-color="#FFF711" />
</linearGradient>
</defs>
</svg>
